# xmcd
#
# Track frame offsets: 
#        150
#        7559
#        29442
#        52089
#        57566
#        73821
#        91262
#        110849
#        121410
#        137877
#        167036
#        173453
#        192426
#
# Disc length: 2763 seconds
#
# Revision: 1
# Processed by: cddbd v1.5PL3 Copyright (c) Steve Scherf et al.
# Submitted via: ExactAudioCopy v0.95a5
#
DISCID=b50ac90d
DTITLE=王雁盟 - 飘浮手风琴
DYEAR=1900
DGENRE=Musical
TTITLE0=微光
TTITLE1=清晨萨鲁奇
TTITLE2=玛奇朵飘浮
TTITLE3=地下铁
TTITLE4=幸福的舞蹈
TTITLE5=单车练习曲
TTITLE6=马戏班经理
TTITLE7=一个人的手风琴
TTITLE8=忧郁摩天轮
TTITLE9=冒险
TTITLE10=手风琴缺席
TTITLE11=微醺的步态
TTITLE12=晚安热可可
EXTD=
EXTT0=
EXTT1=
EXTT2=
EXTT3=
EXTT4=
EXTT5=
EXTT6=
EXTT7=
EXTT8=
EXTT9=
EXTT10=
EXTT11=
EXTT12=
PLAYORDER=
